<mxfile host="app.diagrams.net" modified="2021-12-02T03:15:25.713Z" agent="5.0 (Macintosh)" etag="QG6UZ_SHNh0PJLNYNpBh" version="15.8.3" type="github">
  <diagram id="CYcunyUSsaTXmH7nxa5H" name="Page-1">
    <mxGraphModel dx="878" dy="587" grid="1" gridSize="10" guides="1" tooltips="1" connect="1" arrows="1" fold="1" page="1" pageScale="1" pageWidth="827" pageHeight="1169" math="0" shadow="0">
      <root>
        <mxCell id="0" />
        <mxCell id="1" parent="0" />
        <mxCell id="a5RD4MX3Osv4VvcK5Se4-16" value="" style="edgeStyle=orthogonalEdgeStyle;rounded=0;orthogonalLoop=1;jettySize=auto;html=1;" edge="1" parent="1" source="a5RD4MX3Osv4VvcK5Se4-2" target="a5RD4MX3Osv4VvcK5Se4-3">
          <mxGeometry relative="1" as="geometry" />
        </mxCell>
        <mxCell id="a5RD4MX3Osv4VvcK5Se4-2" value="是否偏向锁" style="rhombus;whiteSpace=wrap;html=1;" vertex="1" parent="1">
          <mxGeometry x="160" y="120" width="80" height="80" as="geometry" />
        </mxCell>
        <mxCell id="a5RD4MX3Osv4VvcK5Se4-17" value="" style="edgeStyle=orthogonalEdgeStyle;rounded=0;orthogonalLoop=1;jettySize=auto;html=1;" edge="1" parent="1" source="a5RD4MX3Osv4VvcK5Se4-3" target="a5RD4MX3Osv4VvcK5Se4-4">
          <mxGeometry relative="1" as="geometry" />
        </mxCell>
        <mxCell id="a5RD4MX3Osv4VvcK5Se4-3" value="是否当前线程ID" style="rhombus;whiteSpace=wrap;html=1;" vertex="1" parent="1">
          <mxGeometry x="280" y="120" width="80" height="80" as="geometry" />
        </mxCell>
        <mxCell id="a5RD4MX3Osv4VvcK5Se4-14" value="对象锁已经被其他线程占有" style="edgeStyle=orthogonalEdgeStyle;rounded=0;orthogonalLoop=1;jettySize=auto;html=1;entryX=0;entryY=0.5;entryDx=0;entryDy=0;exitX=1;exitY=0.5;exitDx=0;exitDy=0;" edge="1" parent="1" source="a5RD4MX3Osv4VvcK5Se4-4" target="a5RD4MX3Osv4VvcK5Se4-6">
          <mxGeometry relative="1" as="geometry" />
        </mxCell>
        <mxCell id="a5RD4MX3Osv4VvcK5Se4-4" value="CAS替换线程ID" style="rhombus;whiteSpace=wrap;html=1;" vertex="1" parent="1">
          <mxGeometry x="400" y="120" width="80" height="80" as="geometry" />
        </mxCell>
        <mxCell id="a5RD4MX3Osv4VvcK5Se4-5" value="偏向锁获取" style="text;html=1;strokeColor=none;fillColor=none;align=center;verticalAlign=middle;whiteSpace=wrap;rounded=0;" vertex="1" parent="1">
          <mxGeometry x="50" y="145" width="80" height="30" as="geometry" />
        </mxCell>
        <mxCell id="a5RD4MX3Osv4VvcK5Se4-6" value="偏向锁撤销" style="text;html=1;strokeColor=none;fillColor=none;align=center;verticalAlign=middle;whiteSpace=wrap;rounded=0;" vertex="1" parent="1">
          <mxGeometry x="55" y="325" width="70" height="30" as="geometry" />
        </mxCell>
        <mxCell id="a5RD4MX3Osv4VvcK5Se4-18" value="" style="edgeStyle=orthogonalEdgeStyle;rounded=0;orthogonalLoop=1;jettySize=auto;html=1;" edge="1" parent="1" source="a5RD4MX3Osv4VvcK5Se4-7" target="a5RD4MX3Osv4VvcK5Se4-8">
          <mxGeometry relative="1" as="geometry" />
        </mxCell>
        <mxCell id="a5RD4MX3Osv4VvcK5Se4-7" value="线程是否存活" style="rhombus;whiteSpace=wrap;html=1;" vertex="1" parent="1">
          <mxGeometry x="160" y="300" width="80" height="80" as="geometry" />
        </mxCell>
        <mxCell id="a5RD4MX3Osv4VvcK5Se4-19" value="" style="edgeStyle=orthogonalEdgeStyle;rounded=0;orthogonalLoop=1;jettySize=auto;html=1;" edge="1" parent="1" source="a5RD4MX3Osv4VvcK5Se4-8" target="a5RD4MX3Osv4VvcK5Se4-9">
          <mxGeometry relative="1" as="geometry" />
        </mxCell>
        <mxCell id="a5RD4MX3Osv4VvcK5Se4-8" value="是否在执行同步代码块" style="rhombus;whiteSpace=wrap;html=1;" vertex="1" parent="1">
          <mxGeometry x="280" y="300" width="80" height="80" as="geometry" />
        </mxCell>
        <mxCell id="a5RD4MX3Osv4VvcK5Se4-9" value="是否允许重偏向" style="rhombus;whiteSpace=wrap;html=1;" vertex="1" parent="1">
          <mxGeometry x="400" y="300" width="80" height="80" as="geometry" />
        </mxCell>
      </root>
    </mxGraphModel>
  </diagram>
</mxfile>
